<svg width="40" height="37" viewBox="0 0 40 37" fill="none" xmlns="http://www.w3.org/2000/svg">
<ellipse cx="20" cy="18.5" rx="20" ry="18.5" fill="white"/>
<path d="M26.5821 11.5271C26.1397 11.0437 25.6137 10.6599 25.0343 10.3978C24.4549 10.1357 23.8334 10.0005 23.2057 10C22.0183 10.0002 20.8743 10.4843 20.0002 11.3565C19.1262 10.4842 17.9821 10 16.7947 10C16.1662 10.0007 15.5441 10.1363 14.9641 10.399C14.3841 10.6617 13.8577 11.0463 13.4151 11.5306C11.5276 13.588 11.5284 16.8059 13.4167 18.8545L20.0002 26L26.5837 18.8545C28.472 16.8059 28.4728 13.588 26.5821 11.5271Z" fill="#FF54A0"/>
</svg>
