<svg width="33" height="31" viewBox="0 0 33 31" fill="none" xmlns="http://www.w3.org/2000/svg">
<rect width="33" height="31" stroke="#C8CBD2"/>
<path d="M24.75 17.0241V12.9166C24.748 11.0865 24.0567 9.31602 22.7983 7.91884C21.54 6.52165 19.796 5.58786 17.875 5.28284V3.87492C17.875 3.53235 17.7301 3.20381 17.4723 2.96157C17.2144 2.71934 16.8647 2.58325 16.5 2.58325C16.1353 2.58325 15.7856 2.71934 15.5277 2.96157C15.2699 3.20381 15.125 3.53235 15.125 3.87492V5.28284C13.204 5.58786 11.46 6.52165 10.2017 7.91884C8.94334 9.31602 8.25197 11.0865 8.25 12.9166V17.0241C7.44762 17.2906 6.75262 17.7837 6.26029 18.4358C5.76796 19.0879 5.50239 19.8671 5.5 20.6666V23.2499C5.5 23.5925 5.64487 23.921 5.90273 24.1633C6.16059 24.4055 6.51033 24.5416 6.875 24.5416H11.1925C11.5091 25.6361 12.2004 26.6023 13.1596 27.2912C14.1188 27.9801 15.2926 28.3533 16.5 28.3533C17.7074 28.3533 18.8812 27.9801 19.8404 27.2912C20.7996 26.6023 21.4909 25.6361 21.8075 24.5416H26.125C26.4897 24.5416 26.8394 24.4055 27.0973 24.1633C27.3551 23.921 27.5 23.5925 27.5 23.2499V20.6666C27.4976 19.8671 27.232 19.0879 26.7397 18.4358C26.2474 17.7837 25.5524 17.2906 24.75 17.0241V17.0241ZM11 12.9166C11 11.5463 11.5795 10.2321 12.6109 9.2632C13.6424 8.29426 15.0413 7.74992 16.5 7.74992C17.9587 7.74992 19.3576 8.29426 20.3891 9.2632C21.4205 10.2321 22 11.5463 22 12.9166V16.7916H11V12.9166ZM16.5 25.8333C16.0201 25.8305 15.5493 25.7099 15.1344 25.4833C14.7195 25.2567 14.375 24.932 14.135 24.5416H18.865C18.625 24.932 18.2805 25.2567 17.8656 25.4833C17.4507 25.7099 16.9799 25.8305 16.5 25.8333ZM24.75 21.9583H8.25V20.6666C8.25 20.324 8.39487 19.9955 8.65273 19.7532C8.91059 19.511 9.26033 19.3749 9.625 19.3749H23.375C23.7397 19.3749 24.0894 19.511 24.3473 19.7532C24.6051 19.9955 24.75 20.324 24.75 20.6666V21.9583Z" fill="#0A213F"/>
</svg>
