<svg width="31" height="33" viewBox="0 0 31 33" fill="none" xmlns="http://www.w3.org/2000/svg">
<path d="M12.7792 0.896296C13.466 0.317461 14.3353 0 15.2335 0C16.1317 0 17.001 0.317461 17.6878 0.896296L29.1129 10.5357C29.9727 11.2584 30.467 12.3231 30.467 13.447V30.0379C30.467 30.8235 30.1549 31.5769 29.5994 32.1324C29.0439 32.6879 28.2905 33 27.5049 33H22.4271C21.6415 33 20.8881 32.6879 20.3326 32.1324C19.7771 31.5769 19.465 30.8235 19.465 30.0379V21.5749C19.465 21.2382 19.3312 20.9153 19.0932 20.6773C18.8551 20.4392 18.5322 20.3054 18.1955 20.3054H12.2714C11.9347 20.3054 11.6118 20.4392 11.3738 20.6773C11.1357 20.9153 11.002 21.2382 11.002 21.5749V30.0379C11.002 30.8235 10.6899 31.5769 10.1344 32.1324C9.57889 32.6879 8.82548 33 8.03989 33H2.96206C2.57308 33 2.18791 32.9234 1.82853 32.7745C1.46916 32.6257 1.14262 32.4075 0.867569 32.1324C0.592516 31.8574 0.374332 31.5308 0.225474 31.1715C0.0766162 30.8121 0 30.4269 0 30.0379V13.4453C0 12.3231 0.494242 11.2584 1.35409 10.534L12.7792 0.896296V0.896296Z" fill="#10A79B"/>
</svg>
