<svg width="30" height="29" viewBox="0 0 30 29" fill="none" xmlns="http://www.w3.org/2000/svg">
<circle cx="14.8722" cy="14.7879" r="12.6832" stroke="#0A213F" stroke-width="3"/>
<path d="M18.6277 12.2009L18.6292 12.2025C19.5009 13.1527 19.4968 14.6471 18.6327 15.5846L18.6325 15.5848L14.8724 19.6659L11.1123 15.5848L11.1121 15.5846C10.2474 14.6465 10.2444 13.1521 11.1133 12.205L11.1154 12.2028C11.3094 11.9904 11.5335 11.829 11.771 11.7214C12.0079 11.6141 12.2571 11.5607 12.5053 11.5603C12.9675 11.5606 13.436 11.7481 13.8128 12.1241L14.8723 13.1814L15.9319 12.1242C16.3088 11.7481 16.7775 11.5606 17.2398 11.5603C17.4877 11.5606 17.7364 11.6139 17.973 11.7209C18.2102 11.8281 18.4339 11.9891 18.6277 12.2009Z" fill="#0A213F" stroke="#0A213F" stroke-width="3"/>
</svg>
