<svg width="75" height="75" viewBox="0 0 75 75" fill="none" xmlns="http://www.w3.org/2000/svg">
<rect width="75" height="75" rx="37.5" fill="#ED3241"/>
<mask id="mask0_69_1530" style="mask-type:alpha" maskUnits="userSpaceOnUse" x="32" y="32" width="11" height="11">
<path d="M42.7835 36.4686C42.8522 36.8368 42.8897 37.2218 42.8897 37.6235C42.8897 40.7657 40.7867 43 37.6104 43C36.888 43.0002 36.1727 42.8581 35.5053 42.5818C34.8379 42.3055 34.2315 41.9003 33.7208 41.3896C33.21 40.8788 32.8049 40.2724 32.5286 39.605C32.2522 38.9376 32.1101 38.2223 32.1104 37.5C32.1101 36.7777 32.2522 36.0624 32.5286 35.395C32.8049 34.7276 33.21 34.1212 33.7208 33.6104C34.2315 33.0997 34.8379 32.6945 35.5053 32.4182C36.1727 32.1419 36.888 31.9998 37.6104 32C39.0954 32 40.3363 32.5464 41.2884 33.4337L39.7379 34.9841V34.9802C39.1608 34.4304 38.4283 34.1483 37.6104 34.1483C35.7956 34.1483 34.3206 35.6814 34.3206 37.4966C34.3206 39.3114 35.7956 40.8478 37.6104 40.8478C39.2569 40.8478 40.3777 39.9064 40.6079 38.6135H37.6104V36.4686H42.7841H42.7835Z" fill="white"/>
</mask>
<g mask="url(#mask0_69_1530)">
<rect x="31.501" y="31.5" width="12" height="12" fill="white"/>
</g>
</svg>
