<svg width="75" height="75" viewBox="0 0 75 75" fill="none" xmlns="http://www.w3.org/2000/svg">
<rect width="75" height="75" rx="37.5" fill="#1F2024"/>
<mask id="mask0_69_1531" style="mask-type:alpha" maskUnits="userSpaceOnUse" x="32" y="31" width="11" height="13">
<path d="M39.8864 31.506C39.8609 31.4775 38.9422 31.5173 38.1427 32.385C37.3432 33.252 37.4662 34.2465 37.4842 34.272C37.5022 34.2975 38.6242 34.3373 39.3404 33.3285C40.0567 32.3198 39.9119 31.5353 39.8864 31.506ZM42.3719 40.3058C42.3359 40.2338 40.6282 39.3803 40.7872 37.7393C40.9462 36.0975 42.0434 35.6475 42.0607 35.5988C42.0779 35.55 41.6129 35.0063 41.1202 34.731C40.7584 34.5369 40.358 34.4258 39.9479 34.4055C39.8669 34.4033 39.5857 34.3343 39.0074 34.4925C38.6264 34.5968 37.7677 34.9343 37.5314 34.9478C37.2944 34.9613 36.5894 34.5563 35.8312 34.449C35.3459 34.3553 34.8314 34.5473 34.4632 34.695C34.0957 34.842 33.3967 35.2605 32.9077 36.3728C32.4187 37.4843 32.6744 39.2453 32.8574 39.7928C33.0404 40.3395 33.3262 41.2358 33.8122 41.8898C34.2442 42.6278 34.8172 43.14 35.0564 43.314C35.2957 43.488 35.9707 43.6035 36.4387 43.3643C36.8152 43.1333 37.4947 43.0005 37.7632 43.0103C38.0309 43.02 38.5589 43.1258 39.0997 43.4145C39.5279 43.5623 39.9329 43.5008 40.3387 43.3358C40.7444 43.17 41.3317 42.5415 42.0172 41.2673C42.2774 40.6748 42.3959 40.3545 42.3719 40.3058Z" fill="white"/>
<path d="M39.8864 31.506C39.8609 31.4775 38.9422 31.5173 38.1427 32.385C37.3432 33.252 37.4662 34.2465 37.4842 34.272C37.5022 34.2975 38.6242 34.3373 39.3404 33.3285C40.0567 32.3198 39.9119 31.5353 39.8864 31.506ZM42.3719 40.3058C42.3359 40.2338 40.6282 39.3803 40.7872 37.7393C40.9462 36.0975 42.0434 35.6475 42.0607 35.5988C42.0779 35.55 41.6129 35.0063 41.1202 34.731C40.7584 34.5369 40.358 34.4258 39.9479 34.4055C39.8669 34.4033 39.5857 34.3343 39.0074 34.4925C38.6264 34.5968 37.7677 34.9343 37.5314 34.9478C37.2944 34.9613 36.5894 34.5563 35.8312 34.449C35.3459 34.3553 34.8314 34.5473 34.4632 34.695C34.0957 34.842 33.3967 35.2605 32.9077 36.3728C32.4187 37.4843 32.6744 39.2453 32.8574 39.7928C33.0404 40.3395 33.3262 41.2358 33.8122 41.8898C34.2442 42.6278 34.8172 43.14 35.0564 43.314C35.2957 43.488 35.9707 43.6035 36.4387 43.3643C36.8152 43.1333 37.4947 43.0005 37.7632 43.0103C38.0309 43.02 38.5589 43.1258 39.0997 43.4145C39.5279 43.5623 39.9329 43.5008 40.3387 43.3358C40.7444 43.17 41.3317 42.5415 42.0172 41.2673C42.2774 40.6748 42.3959 40.3545 42.3719 40.3058Z" fill="white"/>
</mask>
<g mask="url(#mask0_69_1531)">
<rect x="31.501" y="31.5" width="12" height="12" fill="white"/>
</g>
</svg>
