<svg width="72" height="72" viewBox="0 0 72 72" fill="none" xmlns="http://www.w3.org/2000/svg">
<mask id="mask0_92_1849" style="mask-type:alpha" maskUnits="userSpaceOnUse" x="0" y="6" width="72" height="60">
<path d="M25.7905 26.1486C25.7905 30.2906 22.5671 33.6484 18.5908 33.6484C14.6145 33.6484 11.3911 30.2906 11.3911 26.1486C11.3911 22.0065 14.6145 18.6488 18.5908 18.6488C22.5671 18.6488 25.7905 22.0065 25.7905 26.1486Z" fill="#B4DBFF"/>
<path fill-rule="evenodd" clip-rule="evenodd" d="M0.00146484 13.5005C0.00146484 9.35851 3.22489 6.00073 7.20118 6.00073H64.7989C68.7752 6.00073 71.9987 9.35851 71.9987 13.5005V58.4994C71.9987 62.6415 68.7752 65.9992 64.7989 65.9992H60.0465C60.0307 65.9993 60.0149 65.9993 59.9991 65.9993H8.84205C8.82849 65.9993 8.81494 65.9993 8.80139 65.9992H7.20119C3.22489 65.9992 0.00146484 62.6415 0.00146484 58.4994V13.5005ZM7.20118 11.6256H64.7989C65.793 11.6256 66.5989 12.465 66.5989 13.5005V36.8704L50.9565 21.0005L24.3443 47.9998L16.5051 40.0465L5.40125 51.3119V13.5005C5.40125 12.465 6.20711 11.6256 7.20118 11.6256Z" fill="#B4DBFF"/>
</mask>
<g mask="url(#mask0_92_1849)">
<rect x="0.00146484" y="-0.00170898" width="71.9972" height="71.9983" fill="#74BEB2"/>
</g>
</svg>
