<svg width="32" height="31" viewBox="0 0 32 31" fill="none" xmlns="http://www.w3.org/2000/svg">
<path d="M25.3333 5.16675H6.66667C5.60581 5.16675 4.58839 5.57501 3.83824 6.30171C3.0881 7.02841 2.66667 8.01403 2.66667 9.04175V21.9584C2.66667 22.9861 3.0881 23.9718 3.83824 24.6985C4.58839 25.4252 5.60581 25.8334 6.66667 25.8334H25.3333C26.3942 25.8334 27.4116 25.4252 28.1618 24.6985C28.9119 23.9718 29.3333 22.9861 29.3333 21.9584V9.04175C29.3333 8.01403 28.9119 7.02841 28.1618 6.30171C27.4116 5.57501 26.3942 5.16675 25.3333 5.16675V5.16675ZM6.66667 7.75008H25.3333C25.687 7.75008 26.0261 7.88617 26.2761 8.1284C26.5262 8.37064 26.6667 8.69918 26.6667 9.04175L16 15.3451L5.33334 9.04175C5.33334 8.69918 5.47381 8.37064 5.72386 8.1284C5.97391 7.88617 6.31305 7.75008 6.66667 7.75008V7.75008ZM26.6667 21.9584C26.6667 22.301 26.5262 22.6295 26.2761 22.8718C26.0261 23.114 25.687 23.2501 25.3333 23.2501H6.66667C6.31305 23.2501 5.97391 23.114 5.72386 22.8718C5.47381 22.6295 5.33334 22.301 5.33334 21.9584V11.9867L15.3067 17.8897C15.5094 18.003 15.7393 18.0627 15.9733 18.0627C16.2074 18.0627 16.4373 18.003 16.64 17.8897L26.6667 11.9867V21.9584Z" fill="#0A213F"/>
</svg>
