<svg width="27" height="29" viewBox="0 0 27 29" fill="none" xmlns="http://www.w3.org/2000/svg">
<g clip-path="url(#clip0_69_1474)">
<path d="M13.9821 0.776611C11.3598 0.776611 8.79629 1.61184 6.61587 3.17666C4.43545 4.74149 2.73602 6.96564 1.73249 9.56786C0.72895 12.1701 0.466379 15.0335 0.977978 17.796C1.48958 20.5585 2.75237 23.096 4.60666 25.0876C6.46096 27.0793 8.82347 28.4356 11.3955 28.9851C13.9674 29.5346 16.6334 29.2526 19.0561 28.1747C21.4789 27.0968 23.5496 25.2715 25.0065 22.9296C26.4634 20.5877 27.2411 17.8343 27.2411 15.0177C27.2411 13.1475 26.8981 11.2957 26.2318 9.56786C25.5655 7.84005 24.5888 6.27013 23.3576 4.94772C22.1264 3.62532 20.6648 2.57633 19.0561 1.86065C17.4475 1.14497 15.7233 0.776611 13.9821 0.776611V0.776611ZM13.9821 26.4105C11.8842 26.4105 9.83346 25.7424 8.08913 24.4905C6.34479 23.2386 4.98525 21.4593 4.18242 19.3775C3.37959 17.2958 3.16953 15.005 3.57881 12.795C3.98809 10.585 4.99832 8.55504 6.48176 6.96172C7.96519 5.3684 9.85521 4.28333 11.9128 3.84374C13.9704 3.40414 16.1031 3.62976 18.0413 4.49206C19.9795 5.35435 21.6361 6.8146 22.8017 8.68815C23.9672 10.5617 24.5893 12.7644 24.5893 15.0177C24.5893 18.0393 23.4717 20.9371 21.4825 23.0737C19.4933 25.2102 16.7953 26.4105 13.9821 26.4105V26.4105ZM19.2857 13.5936H15.308V9.32125C15.308 8.94356 15.1683 8.58133 14.9197 8.31426C14.671 8.04719 14.3338 7.89715 13.9821 7.89715C13.6305 7.89715 13.2932 8.04719 13.0446 8.31426C12.7959 8.58133 12.6562 8.94356 12.6562 9.32125V13.5936H8.67857C8.32692 13.5936 7.98967 13.7436 7.74102 14.0107C7.49237 14.2778 7.35268 14.64 7.35268 15.0177C7.35268 15.3954 7.49237 15.7576 7.74102 16.0247C7.98967 16.2918 8.32692 16.4418 8.67857 16.4418H12.6562V20.7141C12.6562 21.0918 12.7959 21.454 13.0446 21.7211C13.2932 21.9882 13.6305 22.1382 13.9821 22.1382C14.3338 22.1382 14.671 21.9882 14.9197 21.7211C15.1683 21.454 15.308 21.0918 15.308 20.7141V16.4418H19.2857C19.6374 16.4418 19.9746 16.2918 20.2233 16.0247C20.4719 15.7576 20.6116 15.3954 20.6116 15.0177C20.6116 14.64 20.4719 14.2778 20.2233 14.0107C19.9746 13.7436 19.6374 13.5936 19.2857 13.5936Z" fill="#0A213F"/>
</g>
<defs>
<clipPath id="clip0_69_1474">
<rect width="27" height="29" fill="white"/>
</clipPath>
</defs>
</svg>
