<svg width="57" height="57" viewBox="0 0 57 57" fill="none" xmlns="http://www.w3.org/2000/svg">
<path d="M26.125 4.75C21.4277 4.75 16.8359 6.14291 12.9302 8.7526C9.02455 11.3623 5.98045 15.0715 4.18287 19.4113C2.38529 23.751 1.91496 28.5263 2.83136 33.1334C3.74776 37.7404 6.00973 41.9723 9.33122 45.2938C12.6527 48.6153 16.8846 50.8773 21.4916 51.7937C26.0987 52.7101 30.874 52.2397 35.2137 50.4421C39.5535 48.6446 43.2627 45.6005 45.8724 41.6948C48.4821 37.7891 49.875 33.1973 49.875 28.5C49.875 25.3811 49.2607 22.2928 48.0672 19.4113C46.8736 16.5298 45.1242 13.9116 42.9188 11.7062C40.7134 9.50082 38.0952 7.75141 35.2137 6.55786C32.3323 5.36431 29.2439 4.75 26.125 4.75ZM26.125 47.5C22.3672 47.5 18.6937 46.3857 15.5692 44.2979C12.4446 42.2102 10.0094 39.2428 8.5713 35.771C7.13323 32.2992 6.75697 28.4789 7.49009 24.7933C8.22321 21.1076 10.0328 17.7222 12.69 15.065C15.3472 12.4078 18.7327 10.5982 22.4183 9.86508C26.1039 9.13196 29.9242 9.50822 33.396 10.9463C36.8678 12.3844 39.8352 14.8196 41.9229 17.9442C44.0107 21.0687 45.125 24.7422 45.125 28.5C45.125 33.5391 43.1232 38.3718 39.56 41.935C35.9968 45.4982 31.1641 47.5 26.125 47.5ZM26.125 14.25C25.4951 14.25 24.891 14.5002 24.4456 14.9456C24.0002 15.391 23.75 15.9951 23.75 16.625V27.1225L18.7625 29.9963C18.305 30.2555 17.9464 30.6593 17.7431 31.1443C17.5398 31.6293 17.5032 32.168 17.639 32.676C17.7748 33.1841 18.0755 33.6326 18.4937 33.9514C18.9119 34.2702 19.4241 34.4412 19.95 34.4375C20.3661 34.4404 20.7756 34.3339 21.1375 34.1287L27.3125 30.5662L27.5263 30.3525L27.9063 30.0437C27.9991 29.9262 28.0788 29.7987 28.1438 29.6637C28.2212 29.5362 28.2849 29.4009 28.3338 29.26C28.3984 29.109 28.4384 28.9486 28.4525 28.785L28.5 28.5V16.625C28.5 15.9951 28.2498 15.391 27.8044 14.9456C27.359 14.5002 26.7549 14.25 26.125 14.25Z" fill="black"/>
</svg>
