<svg width="28" height="28" viewBox="0 0 28 28" fill="none" xmlns="http://www.w3.org/2000/svg">
<path d="M13.9998 2.33325C11.5245 2.33325 9.15051 3.31658 7.40017 5.06692C5.64983 6.81726 4.6665 9.19123 4.6665 11.6666C4.6665 17.9666 12.8915 25.0833 13.2415 25.3866C13.4528 25.5673 13.7218 25.6667 13.9998 25.6667C14.2779 25.6667 14.5468 25.5673 14.7582 25.3866C15.1665 25.0833 23.3332 17.9666 23.3332 11.6666C23.3332 9.19123 22.3498 6.81726 20.5995 5.06692C18.8492 3.31658 16.4752 2.33325 13.9998 2.33325ZM13.9998 22.9249C11.5148 20.5916 6.99984 15.5633 6.99984 11.6666C6.99984 9.81007 7.73733 8.02959 9.05009 6.71684C10.3628 5.40408 12.1433 4.66659 13.9998 4.66659C15.8564 4.66659 17.6368 5.40408 18.9496 6.71684C20.2623 8.02959 20.9998 9.81007 20.9998 11.6666C20.9998 15.5633 16.4848 20.6033 13.9998 22.9249ZM13.9998 6.99992C13.0769 6.99992 12.1746 7.27361 11.4072 7.78639C10.6397 8.29917 10.0416 9.02801 9.6884 9.88073C9.33519 10.7335 9.24277 11.6718 9.42284 12.577C9.6029 13.4823 10.0474 14.3138 10.7 14.9664C11.3526 15.6191 12.1842 16.0635 13.0894 16.2436C13.9947 16.4236 14.933 16.3312 15.7857 15.978C16.6384 15.6248 17.3672 15.0267 17.88 14.2592C18.3928 13.4918 18.6665 12.5896 18.6665 11.6666C18.6665 10.4289 18.1748 9.24192 17.2997 8.36675C16.4245 7.49158 15.2375 6.99992 13.9998 6.99992ZM13.9998 13.9999C13.5383 13.9999 13.0872 13.8631 12.7035 13.6067C12.3198 13.3503 12.0207 12.9859 11.8441 12.5595C11.6675 12.1332 11.6213 11.664 11.7113 11.2114C11.8014 10.7588 12.0236 10.343 12.3499 10.0167C12.6762 9.69035 13.092 9.46812 13.5446 9.37809C13.9972 9.28805 14.4664 9.33426 14.8928 9.51087C15.3191 9.68747 15.6835 9.98654 15.9399 10.3703C16.1963 10.754 16.3332 11.2051 16.3332 11.6666C16.3332 12.2854 16.0873 12.8789 15.6498 13.3165C15.2122 13.7541 14.6187 13.9999 13.9998 13.9999Z" fill="black"/>
</svg>
