<svg width="169" height="149" viewBox="0 0 169 149" fill="none" xmlns="http://www.w3.org/2000/svg">
<ellipse cx="84.5" cy="74.5" rx="84.5" ry="74.5" fill="white"/>
<path d="M79.8694 61.36C77.7114 64.6286 75.9977 68.1109 73.9772 71.4436C72.7712 73.4305 71.523 75.5134 70.1372 77.3934C65.4297 83.7811 57.8344 90.9166 49.9111 92.6471C49.7207 91.4721 52.8731 88.588 52.7038 87.8936L49.6466 85.4155C55.6023 83.6209 61.0608 77.3934 64.4883 72.4905C65.9058 70.4609 67.2598 68.41 68.5821 66.2843C70.4757 63.2507 72.2423 60.2277 74.2099 57.2368C75.2043 57.2368 78.1028 56.0405 78.8327 56.5746C79.1183 56.7775 79.7636 60.6764 79.8377 61.3707L79.8694 61.36Z" fill="#040025"/>
<path d="M35.08 61.6163C35.7147 62.3107 35.08 66.53 35.3339 66.7863C36.7091 66.9359 38.4016 66.4552 39.6816 67.0427C30.9226 73.5052 37.5025 89.0579 49.6677 85.3941L52.7249 87.8722C52.8942 88.5666 49.7418 91.4613 49.9322 92.6257C31.4939 96.642 20.9365 72.8963 35.08 61.6163Z" fill="#720000"/>
<path d="M68.6139 66.2629C67.2916 68.3886 65.9375 70.4395 64.52 72.469C62.4678 71.0697 60.5425 69.4354 58.3845 68.1963C52.9048 65.0665 45.2248 62.9622 39.6922 67.0427C38.4122 66.4552 36.7197 66.9359 35.3445 66.7863C35.0906 66.53 35.7253 62.2999 35.0906 61.6163C43.2466 55.1111 54.5445 57.4504 62.8169 62.4388C64.795 63.6352 66.5616 65.3122 68.6245 66.2629H68.6139Z" fill="#EC1B24"/>
<path d="M122.109 102.197L120.078 106.427C120.152 106.672 123.76 108.905 124.416 108.916C112.324 113.284 100.9 104.76 91.9078 97.5394C92.2569 96.6848 91.9395 93.32 92.405 92.9996L97.2817 92.6257C103.798 97.7851 113.35 105.348 122.109 102.186V102.197Z" fill="#FEBF10"/>
<path d="M140.029 51.7891L137.818 55.3889C137.046 55.6239 134.433 53.402 133.376 53.3379C131.979 46.6618 127.811 33.9291 120.829 31.3654C121.221 30.3507 123.77 28.3852 123.844 27.5734C123.971 26.2168 121.168 25.64 121.337 24.1232C133.164 27.05 137.734 41.1927 140.019 51.7784L140.029 51.7891Z" fill="#006B9C"/>
<path d="M134.402 81.5166C135.661 81.3991 136.38 84.3259 137.596 84.358C138.326 84.3794 140.294 82.5634 140.929 82.04L141.309 82.5528C139.638 93.1278 135.237 105.017 124.416 108.915C123.76 108.905 120.152 106.672 120.078 106.427L122.109 102.197C129.652 99.4834 133.259 88.823 134.391 81.5166H134.402Z" fill="#15AC27"/>
<path d="M121.348 24.1339C121.168 25.6507 123.982 26.2275 123.855 27.5841C123.781 28.3959 121.221 30.3614 120.84 31.3762C112.716 28.3959 102.275 35.9053 96.52 41.2034L96.6681 35.7557C96.2132 35.1362 93.4205 35.7237 92.68 35.2537C100.402 28.4814 110.515 21.4634 121.348 24.1339Z" fill="#34356B"/>
<path d="M97.2817 92.6363L92.405 93.0102C91.9501 93.3306 92.2569 96.6954 91.9078 97.55C84.196 91.3545 77.2883 84.2297 70.1478 77.3934C71.5336 75.5241 72.7818 73.4411 73.9878 71.4436C74.4955 71.4436 74.6965 71.7961 75.0139 72.0845C82.5352 78.9743 89.2102 86.2486 97.2817 92.6363Z" fill="#F88820"/>
<path d="M141.309 82.5527L140.929 82.04C140.283 82.5741 138.326 84.3793 137.596 84.3579C136.38 84.3259 135.661 81.3991 134.402 81.5166C135.777 72.7147 135.206 62.065 133.376 53.3379C134.433 53.3913 137.036 55.6132 137.819 55.3888L140.029 51.7891C142.293 62.2893 143.002 71.8709 141.309 82.5527Z" fill="#10A79B"/>
<path d="M96.5094 41.1927C90.4691 46.7579 84.4076 54.4702 79.8694 61.3493C79.7954 60.6443 79.1501 56.7561 78.8644 56.5531C78.1345 56.0191 75.236 57.2154 74.2416 57.2154C79.7107 48.905 85.1692 41.8229 92.6694 35.2429C93.4099 35.7129 96.2026 35.1254 96.6575 35.745L96.5094 41.1927Z" fill="#992799"/>
</svg>
