<svg width="121" height="88" viewBox="0 0 121 88" fill="none" xmlns="http://www.w3.org/2000/svg">
<path d="M55.65 38.72C53.61 41.78 51.99 45.04 50.08 48.16C48.94 50.02 47.76 51.97 46.45 53.73C42 59.71 34.82 66.39 27.33 68.01C27.15 66.91 30.13 64.21 29.97 63.56L27.08 61.24C32.71 59.56 37.87 53.73 41.11 49.14C42.45 47.24 43.73 45.32 44.98 43.33C46.77 40.49 48.44 37.66 50.3 34.86C51.24 34.86 53.98 33.74 54.67 34.24C54.94 34.43 55.55 38.08 55.62 38.73L55.65 38.72Z" fill="#040025"/>
<path d="M13.31 38.96C13.91 39.61 13.31 43.56 13.55 43.8C14.85 43.94 16.45 43.49 17.66 44.04C9.38001 50.09 15.6 64.65 27.1 61.22L29.99 63.54C30.15 64.19 27.17 66.9 27.35 67.99C9.92001 71.75 -0.0599875 49.52 13.31 38.96Z" fill="#720000"/>
<path d="M45.01 43.31C43.76 45.3 42.48 47.22 41.14 49.12C39.2 47.81 37.38 46.28 35.34 45.12C30.16 42.19 22.9 40.22 17.67 44.04C16.46 43.49 14.86 43.94 13.56 43.8C13.32 43.56 13.92 39.6 13.32 38.96C21.03 32.87 31.71 35.06 39.53 39.73C41.4 40.85 43.07 42.42 45.02 43.31H45.01Z" fill="#EC1B24"/>
<path d="M95.58 76.95L93.66 80.91C93.73 81.14 97.14 83.23 97.76 83.24C86.33 87.33 75.53 79.35 67.03 72.59C67.36 71.79 67.06 68.64 67.5 68.34L72.11 67.99C78.27 72.82 87.3 79.9 95.58 76.94V76.95Z" fill="#FEBF10"/>
<path d="M112.52 29.76L110.43 33.13C109.7 33.35 107.23 31.27 106.23 31.21C104.91 24.96 100.97 13.04 94.37 10.64C94.74 9.69 97.15 7.85 97.22 7.09C97.34 5.82 94.69 5.28 94.85 3.86C106.03 6.6 110.35 19.84 112.51 29.75L112.52 29.76Z" fill="#006B9C"/>
<path d="M107.2 57.59C108.39 57.48 109.07 60.22 110.22 60.25C110.91 60.27 112.77 58.57 113.37 58.08L113.73 58.56C112.15 68.46 107.99 79.59 97.76 83.24C97.14 83.23 93.73 81.14 93.66 80.91L95.58 76.95C102.71 74.41 106.12 64.43 107.19 57.59H107.2Z" fill="#15AC27"/>
<path d="M94.86 3.87C94.69 5.29 97.35 5.83 97.23 7.1C97.16 7.86 94.74 9.7 94.38 10.65C86.7 7.86 76.83 14.89 71.39 19.85L71.53 14.75C71.1 14.17 68.46 14.72 67.76 14.28C75.06 7.94 84.62 1.37 94.86 3.87Z" fill="#34356B"/>
<path d="M72.11 68L67.5 68.35C67.07 68.65 67.36 71.8 67.03 72.6C59.74 66.8 53.21 60.13 46.46 53.73C47.77 51.98 48.95 50.03 50.09 48.16C50.57 48.16 50.76 48.49 51.06 48.76C58.17 55.21 64.48 62.02 72.11 68Z" fill="#F88820"/>
<path d="M113.73 58.56L113.37 58.08C112.76 58.58 110.91 60.27 110.22 60.25C109.07 60.22 108.39 57.48 107.2 57.59C108.5 49.35 107.96 39.38 106.23 31.21C107.23 31.26 109.69 33.34 110.43 33.13L112.52 29.76C114.66 39.59 115.33 48.56 113.73 58.56Z" fill="#10A79B"/>
<path d="M71.38 19.84C65.67 25.05 59.94 32.27 55.65 38.71C55.58 38.05 54.97 34.41 54.7 34.22C54.01 33.72 51.27 34.84 50.33 34.84C55.5 27.06 60.66 20.43 67.75 14.27C68.45 14.71 71.09 14.16 71.52 14.74L71.38 19.84Z" fill="#992799"/>
</svg>
